PathFileType	4	(X/Y/Z)	StaticT.trc																																																																									
DataRate	CameraRate	NumFrames	NumMarkers	Units	OrigDataRate	OrigDataStartFrame	OrigNumFrames																																																																					
100	100	4	25	mm	100	60	481																																																																					
Frame#	Time	AA			AI			Ant_Sh			CV7			GH			LAH			Lat_Sh			LCAJ			LPH			Post_Sh			RAH			RCAJ			RHLE			RHME			RPH			RUA			SJN			SXS			TS			TV8			centelbow			centpxt8			centijc7			centLPHRPH			ScapulaThoracicContactPt		
		X1	Y1	Z1	X2	Y2	Z2	X3	Y3	Z3	X4	Y4	Z4	X5	Y5	Z5	X6	Y6	Z6	X7	Y7	Z7	X8	Y8	Z8	X9	Y9	Z9	X10	Y10	Z10	X11	Y11	Z11	X12	Y12	Z12	X13	Y13	Z13	X14	Y14	Z14	X15	Y15	Z15	X16	Y16	Z16	X17	Y17	Z17	X18	Y18	Z18	X19	Y19	Z19	X20	Y20	Z20	X21	Y21	Z21	X22	Y22	Z22	X23	Y23	Z23	X24	Y24	Z24	X25	Y25	Z25
																																																																												
61	0.6	-750.8485718	1556.67041	764.5839844	-767.4329224	1375.18689	721.7556152	-640.1743774	1574.53894	779.6740723	-745.8908691	1597.262695	584.8389282	-692.107605	1548.095215	777.4591064	-526.0319214	1778.975586	556.9815674	-711.5952148	1585.143311	792.0712891	-695.8099365	1595.048462	439.1797485	-725.9517212	1732.172607	519.7687988	-764.7523193	1511.105469	774.3607788	-542.7685547	1778.464478	654.2318726	-703.8536987	1588.657104	732.9523315	-720.3292847	1519.885986	1052.192383	-605.4782104	1473.640259	1057.845337	-738.4702759	1734.125122	635.8466797	-721.9640503	1458.008545	905.8255005	-581.0987549	1521.886841	592.1116333	-519.1237793	1343.086914	592.0866699	-799.9958496	1504.88501	676.3787231	-752.2091064	1309.993286	584.8228149	-662.9037476	1496.763123	1055.01886	-635.6664429	1326.5401	588.4547424	-663.494812	1559.574768	588.4752808	-732.2109985	1733.148865	577.8077393	-772.7591146	1478.914103	720.9061076
62	0.61	-750.8719482	1556.670776	764.5976563	-767.5249023	1375.1698	721.8079224	-640.1856689	1574.566895	779.6603394	-745.9336548	1597.269409	584.8046265	-692.0958252	1548.093018	777.4545288	-526.0662231	1778.973267	557.0811768	-711.6209106	1585.162109	792.0477295	-695.885498	1595.038086	439.1793823	-726.0264893	1732.165894	519.7750854	-764.7633667	1511.033081	774.3666382	-542.8739624	1778.461182	654.2827759	-703.8361816	1588.617798	732.9433594	-720.3597412	1519.894531	1052.161377	-605.5341797	1473.685547	1057.849609	-738.512085	1734.092041	635.8175659	-722.0089111	1458.024536	905.8504028	-581.1947632	1521.884521	592.0906372	-519.1690674	1343.084473	592.0766602	-800.0753784	1504.861938	676.3753052	-752.2624512	1309.934937	584.8554688	-662.9469604	1496.790039	1055.005493	-635.7157593	1326.509705	588.4660645	-663.564209	1559.576965	588.4476318	-732.2692871	1733.128967	577.7963257	-772.8240763	1478.900838	720.9269613
63	0.62	-750.9422607	1556.673218	764.6044312	-767.5568848	1375.180298	721.7775269	-640.2331543	1574.576782	779.6500854	-745.9915771	1597.302612	584.8380127	-692.161438	1548.114258	777.4481201	-526.1778564	1778.98999	557.0003662	-711.6582031	1585.158691	792.0465088	-695.9100342	1595.069824	439.2018433	-726.0726929	1732.13623	519.7435913	-764.8371582	1511.078857	774.366394	-542.9274902	1778.47522	654.2584839	-703.8543701	1588.584229	732.9006958	-720.4362183	1519.919067	1052.154419	-605.5858154	1473.684204	1057.851685	-738.5854492	1734.109741	635.8162231	-722.0248413	1457.947998	905.866394	-581.2471313	1521.9198	592.1079102	-519.1676636	1343.099487	592.0540771	-800.1121216	1504.901733	676.3961792	-752.3375244	1309.961914	584.8518677	-663.0110168	1496.801636	1055.003052	-635.752594	1326.530701	588.4529724	-663.6193542	1559.611206	588.4729614	-732.329071	1733.122986	577.7799072	-772.8704224	1478.918416	720.9260457
64	0.63	-750.984375	1556.683105	764.5767822	-767.5733032	1375.159424	721.8393555	-640.2844238	1574.544189	779.6596069	-746.0414429	1597.253296	584.819397	-692.2042847	1548.085571	777.4649658	-526.2476807	1779.015991	557.0033569	-711.7141724	1585.1604	792.0477905	-695.9802856	1595.05835	439.1829529	-726.1382446	1732.149048	519.7454834	-764.8861694	1511.046631	774.3927002	-543.0147095	1778.449341	654.2982788	-703.8359375	1588.61853	732.9431763	-720.4822388	1519.935181	1052.178467	-605.5830688	1473.738403	1057.827026	-738.6722412	1734.070679	635.8098145	-722.059082	1458.014893	905.8806763	-581.2940063	1521.924683	592.0796509	-519.2206421	1343.080688	592.0771484	-800.1589966	1504.890991	676.4274292	-752.343811	1309.91333	584.8522339	-663.0326538	1496.836792	1055.002747	-635.7822266	1326.497009	588.4646912	-663.6677246	1559.588989	588.4495239	-732.4052429	1733.109863	577.7776489	-772.9055583	1478.911174	720.9478556
